<?xml version="1.0" encoding="UTF-8"?>
<svg version="1.1" xmlns="http://www.w3.org/2000/svg" width="188" height="63">
<path d="M0 0 C4.8275475 -0.21943398 7.94176963 0.57373977 12 3.15625 C12.61875 3.919375 13.2375 4.6825 13.875 5.46875 C14.57625 6.025625 15.2775 6.5825 16 7.15625 C19.28581034 6.50612725 19.28581034 6.50612725 21.5859375 5.76171875 C26.79674369 4.45480134 33.23218543 3.67973925 38.1015625 6.27734375 C39.75 7.65625 39.75 7.65625 42 10.15625 C42.268125 9.063125 42.53625 7.97 42.8125 6.84375 C44.51209399 1.56606341 44.51209399 1.56606341 47 0.15625 C53.85714286 -0.60565476 53.85714286 -0.60565476 57.4375 1.78125 C61.45130142 7.88222817 59.64828288 15.07258395 58.75 21.90625 C58.62753906 22.94007812 58.50507813 23.97390625 58.37890625 25.0390625 C56.87837916 36.83528533 54.50807277 47.19600303 45 55.15625 C36.66237502 58.72951785 27.08793631 58.07420388 18.7421875 54.91015625 C17.47788286 54.36304684 16.23216718 53.77233359 15 53.15625 C15 52.49625 15 51.83625 15 51.15625 C14.34 51.15625 13.68 51.15625 13 51.15625 C11.375 49.65625 11.375 49.65625 10 48.15625 C9.46375 49.06375 8.9275 49.97125 8.375 50.90625 C6.36444144 54.30873371 3.6509368 56.68142142 0 58.15625 C-3.990623 58.71264922 -7.91493566 58.66937128 -11.9375 58.59375 C-12.99646484 58.60083984 -14.05542969 58.60792969 -15.14648438 58.61523438 C-21.15941503 58.56647075 -25.75192732 58.19084985 -31 55.15625 C-31.66 54.16625 -32.32 53.17625 -33 52.15625 C-33.78375 53.125625 -34.5675 54.095 -35.375 55.09375 C-36.91288705 56.99587346 -37.79259913 58.05254957 -40 59.15625 C-64.03474425 60.3895364 -64.03474425 60.3895364 -73 54.15625 C-73.33 53.49625 -73.66 52.83625 -74 52.15625 C-74.515625 52.671875 -75.03125 53.1875 -75.5625 53.71875 C-78 55.15625 -78 55.15625 -81.4375 55.15625 C-85.79705311 53.93251579 -87.02538373 52.55581145 -90 49.15625 C-91.59604446 47.54400204 -93.20080805 45.94035591 -94.8125 44.34375 C-96.20833333 42.94791667 -97.60416667 41.55208333 -99 40.15625 C-101.19093197 42.34718197 -101.103329 47.44107517 -101.54296875 50.52148438 C-102.16807171 54.11407048 -102.83636028 55.98563547 -105.3828125 58.640625 C-108 60.15625 -108 60.15625 -111.625 60.09375 C-116.30434783 58.79393116 -116.30434783 58.79393116 -118 56.15625 C-119.61331482 51.38761228 -118.23302096 47.47194683 -116.8125 42.84375 C-116.33882218 41.24157056 -115.86751647 39.63868815 -115.3984375 38.03515625 C-115.04217285 36.82110107 -115.04217285 36.82110107 -114.67871094 35.58251953 C-114.02663814 33.25147655 -113.45311286 30.91808544 -112.9140625 28.55859375 C-112.66499146 27.47735229 -112.66499146 27.47735229 -112.41088867 26.37426758 C-111.96197238 24.389451 -111.52554455 22.40182192 -111.08984375 20.4140625 C-109.92481468 16.93150247 -108.88627967 15.38109058 -106 13.15625 C-103.0625 12.59375 -103.0625 12.59375 -100 13.15625 C-97.1875 15.59375 -97.1875 15.59375 -95 18.15625 C-94.67 18.48625 -94.34 18.81625 -94 19.15625 C-93.97873047 18.14304687 -93.97873047 18.14304687 -93.95703125 17.109375 C-93.57185725 9.90558019 -93.57185725 9.90558019 -91.1875 6.78125 C-84.31090342 3.2755341 -76.81608927 0.15845137 -69 1.15625 C-66 3.15625 -66 3.15625 -64 6.15625 C-63.34 5.82625 -62.68 5.49625 -62 5.15625 C-57.77167028 4.94456669 -53.53943156 4.97045465 -49.30639648 4.97094727 C-47.20600877 4.96876919 -45.10615355 4.9506333 -43.00585938 4.93164062 C-41.66406429 4.92870484 -40.32226672 4.92672128 -38.98046875 4.92578125 C-37.76254639 4.92167236 -36.54462402 4.91756348 -35.28979492 4.91333008 C-30.45030094 5.27068047 -27.19059418 6.4618778 -24 10.15625 C-23.195625 9.41375 -22.39125 8.67125 -21.5625 7.90625 C-15.15039989 2.58299708 -8.19988845 0.64061629 0 0 Z M-66 11.15625 C-66.33 13.46625 -66.66 15.77625 -67 18.15625 C-66.01 18.15625 -65.02 18.15625 -64 18.15625 C-64.33 15.84625 -64.66 13.53625 -65 11.15625 C-65.33 11.15625 -65.66 11.15625 -66 11.15625 Z M-9.6875 17.65625 C-10.450625 18.48125 -11.21375 19.30625 -12 20.15625 C-8.7 20.15625 -5.4 20.15625 -2 20.15625 C-2.66 18.50625 -3.32 16.85625 -4 15.15625 C-7.24565858 14.81569803 -7.24565858 14.81569803 -9.6875 17.65625 Z M-39 20.15625 C-38.2884375 20.6821875 -38.2884375 20.6821875 -37.5625 21.21875 C-35.32126175 23.99788543 -35.32882342 26.6707217 -35 30.15625 C-33.35173889 27.18937999 -32.55728913 24.49998475 -32 21.15625 C-34.31 20.82625 -36.62 20.49625 -39 20.15625 Z M6 22.15625 C8.475 22.65125 8.475 22.65125 11 23.15625 C11 22.16625 11 21.17625 11 20.15625 C8.67642489 19.97134993 8.67642489 19.97134993 6 22.15625 Z M-36 30.15625 C-35 32.15625 -35 32.15625 -35 32.15625 Z M-70 33.15625 C-69 35.15625 -69 35.15625 -69 35.15625 Z M-37 32.15625 C-37.33 32.48625 -37.66 32.81625 -38 33.15625 C-40.01594582 33.39052778 -42.038474 33.56961124 -44.0625 33.71875 C-45.71958984 33.84443359 -45.71958984 33.84443359 -47.41015625 33.97265625 C-48.26480469 34.03324219 -49.11945313 34.09382813 -50 34.15625 C-50 34.48625 -50 34.81625 -50 35.15625 C-43.07 35.65125 -43.07 35.65125 -36 36.15625 C-36.33 34.83625 -36.66 33.51625 -37 32.15625 Z M-71 36.15625 C-70 38.15625 -70 38.15625 -70 38.15625 Z M-19 36.15625 C-18.67 37.80625 -18.34 39.45625 -18 41.15625 C-17.34 41.15625 -16.68 41.15625 -16 41.15625 C-15.67 39.50625 -15.34 37.85625 -15 36.15625 C-16.32 36.15625 -17.64 36.15625 -19 36.15625 Z " fill="#61C6EC" transform="translate(123,1.84375)"/>
<path d="M0 0 C0.99 0 1.98 0 3 0 C3.35723776 8.11062024 2.95063388 15.85948951 1.75 23.875 C1.64067139 24.6585083 1.53134277 25.4420166 1.41870117 26.24926758 C0.31835829 33.07168246 -1.73528845 39.35028564 -7.125 43.9375 C-11.39153809 46.99827733 -13.5588435 47.15999395 -18.8125 47.1875 C-20.03582031 47.20167969 -21.25914062 47.21585938 -22.51953125 47.23046875 C-27.01046493 46.9330893 -29.80266601 45.99777832 -33.25 43.125 C-36.57824588 39.08355857 -36.19227037 34.54824848 -36.1875 29.5 C-36.18814453 28.79601074 -36.18878906 28.09202148 -36.18945312 27.36669922 C-36.13479738 21.88249229 -35.49453069 16.64573283 -34.4375 11.2578125 C-33.93658895 9.05605526 -33.93658895 9.05605526 -34 7 C-28.20156531 4.42291791 -22.22882157 4.58345361 -16 5 C-15 6 -15 6 -14.88647461 8.68383789 C-14.89171143 9.85164795 -14.89694824 11.01945801 -14.90234375 12.22265625 C-14.90556641 13.48271484 -14.90878906 14.74277344 -14.91210938 16.04101562 C-14.92046597 17.38151109 -14.92893093 18.72200588 -14.9375 20.0625 C-14.9425134 21.40689942 -14.94707658 22.7513006 -14.95117188 24.09570312 C-14.96300512 27.39717941 -14.97949029 30.69856803 -15 34 C-12.58380177 34.25030977 -12.58380177 34.25030977 -10 34 C-7.87277056 30.80915584 -7.5504744 29.1473364 -7.03515625 25.4140625 C-6.79442383 23.77050781 -6.79442383 23.77050781 -6.54882812 22.09375 C-6.22575867 19.78944735 -5.90542602 17.48475927 -5.58789062 15.1796875 C-5.42611328 14.08140625 -5.26433594 12.983125 -5.09765625 11.8515625 C-4.88894897 10.34843506 -4.88894897 10.34843506 -4.67602539 8.81494141 C-3.85829712 5.40995513 -2.50518332 2.50518332 0 0 Z " fill="#0578BF" transform="translate(174,7)"/>
<path d="M0 0 C1.62364748 2.73067986 1.86834144 4.18800419 1.375 7.3125 C-0.625 9.3125 -0.625 9.3125 -4.1875 9.5 C-7.625 9.3125 -7.625 9.3125 -8.625 8.3125 C-8.66563832 6.64632885 -8.667721 4.97861905 -8.625 3.3125 C-15.78176237 4.14769561 -21.00249738 5.54907434 -25.625 11.3125 C-29.83502866 18.24537836 -32.05455985 24.15086285 -31.625 32.3125 C-30.61642163 35.60356674 -30.61642163 35.60356674 -28.625 38.3125 C-26.29682036 38.68010731 -23.9631615 39.01491581 -21.625 39.3125 C-21.42003906 38.48105469 -21.21507813 37.64960937 -21.00390625 36.79296875 C-20.73449219 35.70628906 -20.46507813 34.61960938 -20.1875 33.5 C-19.92066406 32.42105469 -19.65382813 31.34210937 -19.37890625 30.23046875 C-18.86422588 28.2384157 -18.27562825 26.26438476 -17.625 24.3125 C-20.595 24.3125 -23.565 24.3125 -26.625 24.3125 C-25.75 19.4375 -25.75 19.4375 -24.625 18.3125 C-16.5315622 17.82846965 -8.44096917 17.97962903 -0.625 20.3125 C0.375 21.3125 0.375 21.3125 0.609375 24.390625 C0.34606534 28.79667324 -0.69536816 32.03299863 -2.375 36.0625 C-2.62765625 36.72121094 -2.8803125 37.37992188 -3.140625 38.05859375 C-4.71364488 41.93608774 -6.04030817 44.1645568 -9.625 46.3125 C-11.92749023 46.68481445 -11.92749023 46.68481445 -14.43359375 46.67578125 C-15.34560547 46.67513672 -16.25761719 46.67449219 -17.19726562 46.67382812 C-18.14279297 46.65771484 -19.08832031 46.64160156 -20.0625 46.625 C-21.00416016 46.62822266 -21.94582031 46.63144531 -22.91601562 46.63476562 C-29.02531435 46.58733988 -33.36738569 46.53145653 -37.90625 42.0703125 C-41.39985677 36.46466163 -40.34902129 29.57702201 -38.96484375 23.3359375 C-35.58239855 12.93967736 -29.28586484 5.41080971 -19.625 0.3125 C-13.59819268 -2.09822293 -5.72481651 -3.68023918 0 0 Z " fill="#097AC0" transform="translate(131.625,8.6875)"/>
<path d="M0 0 C-0.67982405 7.51951721 -2.00681616 14.87648552 -3.47412109 22.27661133 C-3.8772292 24.32382111 -4.26482919 26.37361709 -4.65234375 28.42382812 C-4.91051204 29.73716554 -5.16959407 31.05032374 -5.4296875 32.36328125 C-5.65897949 33.54188721 -5.88827148 34.72049316 -6.12451172 35.93481445 C-6.98508563 38.94778306 -7.94335807 40.6743685 -10 43 C-13.46629835 41.51346494 -15.69022036 39.54277649 -18.328125 36.8671875 C-19.12734375 36.06152344 -19.9265625 35.25585938 -20.75 34.42578125 C-21.575 33.58402344 -22.4 32.74226563 -23.25 31.875 C-24.09046875 31.02550781 -24.9309375 30.17601563 -25.796875 29.30078125 C-27.86915683 27.20495077 -29.93662393 25.10459287 -32 23 C-33.34754016 26.14162085 -34.28549706 28.96531181 -34.7109375 32.35546875 C-34.87722656 33.53592773 -34.87722656 33.53592773 -35.046875 34.74023438 C-35.26703399 36.38225348 -35.47786044 38.02554888 -35.6796875 39.66992188 C-35.793125 40.45302734 -35.9065625 41.23613281 -36.0234375 42.04296875 C-36.11544434 42.75477295 -36.20745117 43.46657715 -36.30224609 44.19995117 C-37 46 -37 46 -39.06103516 47.24731445 C-39.70089355 47.49570068 -40.34075195 47.74408691 -41 48 C-41.99 47.34 -42.98 46.68 -44 46 C-43.06619508 41.05464537 -41.82802708 36.19186873 -40.58398438 31.31787109 C-39.74100349 28.00411019 -38.93465955 24.69820477 -38.2109375 21.35546875 C-37.97632813 20.28941406 -37.74171875 19.22335938 -37.5 18.125 C-37.3040625 17.17882812 -37.108125 16.23265625 -36.90625 15.2578125 C-36 13 -36 13 -33.90625 11.6796875 C-33.2771875 11.45539062 -32.648125 11.23109375 -32 11 C-30.96939453 12.13888672 -30.96939453 12.13888672 -29.91796875 13.30078125 C-29.00785258 14.30472383 -28.0976941 15.30862807 -27.1875 16.3125 C-26.50977539 17.06176758 -26.50977539 17.06176758 -25.81835938 17.82617188 C-23.5969859 20.27454702 -21.34926947 22.67461128 -19 25 C-19.01571045 24.44014404 -19.0314209 23.88028809 -19.04760742 23.3034668 C-19.10999848 20.7649141 -19.14900218 18.22652271 -19.1875 15.6875 C-19.21263672 14.80642578 -19.23777344 13.92535156 -19.26367188 13.01757812 C-19.27333984 12.17001953 -19.28300781 11.32246094 -19.29296875 10.44921875 C-19.3086792 9.66893311 -19.32438965 8.88864746 -19.34057617 8.0847168 C-18.90692271 5.43026024 -18.09646514 4.63925249 -16 3 C-10.43665677 0.32135326 -6.0409809 -1.6787568 0 0 Z " fill="#0C7DC1" transform="translate(53,9)"/>
<path d="M0 0 C3.33325754 -0.05874776 6.66637938 -0.09384467 10 -0.125 C10.93457031 -0.14175781 11.86914062 -0.15851562 12.83203125 -0.17578125 C18.59209963 -0.21606145 23.4774282 0.34583345 29 2 C28.67 3.32 28.34 4.64 28 6 C13.21867882 6.18451025 13.21867882 6.18451025 7 5 C6.01 8.3 5.02 11.6 4 15 C5.546875 14.979375 7.09375 14.95875 8.6875 14.9375 C12.26173735 14.93243016 15.52451334 15.07320356 19 16 C19 17.32 19 18.64 19 20 C13.39 20 7.78 20 2 20 C1.34 22.97 0.68 25.94 0 29 C10.395 29.99 10.395 29.99 21 31 C22.02195554 35.08782216 21.97127001 35.95129194 20.625 39.6875 C20.34914063 40.47511719 20.07328125 41.26273438 19.7890625 42.07421875 C19 44 19 44 18 45 C15.34149026 45.12887928 12.7217326 45.18974811 10.0625 45.1875 C9.29429932 45.18814453 8.52609863 45.18878906 7.73461914 45.18945312 C1.97724687 45.13614973 -3.43099193 44.53250345 -9 43 C-8.76919007 34.08234348 -5.99681008 26.29375483 -3 18 C-4.98 18 -6.96 18 -9 18 C-8.67 16.68 -8.34 15.36 -8 14 C-5.69 14 -3.38 14 -1 14 C-0.01 11.03 0.98 8.06 2 5 C1.01 5 0.02 5 -1 5 C-0.67 3.35 -0.34 1.7 0 0 Z " fill="#097BC0" transform="translate(64,11)"/>
<path d="M0 0 C3.375 2.125 3.375 2.125 5 5 C5.07119063 8.55953149 4.7009249 10.22119455 2.3125 12.875 C-0.65448426 14.31839775 -2.73954567 14.35439721 -6 14 C-8 12 -8 12 -8.125 9.375 C-8.08375 8.59125 -8.0425 7.8075 -8 7 C-15.70008242 9.21440279 -20.61449872 11.33336426 -24.75 18.5 C-27.14393465 22.92423366 -28.14201713 26.53393775 -28.125 31.5625 C-28.12757812 32.32691406 -28.13015625 33.09132812 -28.1328125 33.87890625 C-28.07907384 36.18998495 -28.07907384 36.18998495 -27 39 C-23.99152582 40.22520264 -23.99152582 40.22520264 -21 41 C-20.01 37.04 -19.02 33.08 -18 29 C-19.670625 29.061875 -19.670625 29.061875 -21.375 29.125 C-25 29 -25 29 -27 27 C-26.625 24.375 -26.625 24.375 -26 22 C-25.01 22 -24.02 22 -23 22 C-23.99 24.475 -23.99 24.475 -25 27 C-22.03 27 -19.06 27 -16 27 C-16.28382946 28.75128818 -16.57739529 30.50100003 -16.875 32.25 C-17.03742188 33.22453125 -17.19984375 34.1990625 -17.3671875 35.203125 C-17.94855848 37.77264117 -18.70840265 39.72071056 -20 42 C-26.45217391 42.36521739 -26.45217391 42.36521739 -28.875 40.75 C-31.44457386 36.7528851 -31.36963766 32.65743456 -31 28 C-28.95379876 19.3851018 -24.71325314 11.56515993 -17.015625 6.76171875 C-14.77712621 5.91577444 -13.13261361 5.79557955 -10.75 5.875 C-8.89375 5.936875 -8.89375 5.936875 -7 6 C-6.505 8.475 -6.505 8.475 -6 11 C-3.66705225 11.04241723 -1.33297433 11.04092937 1 11 C2.41577477 9.81575674 2.41577477 9.81575674 2.0625 6.4375 C2.041875 5.303125 2.02125 4.16875 2 3 C-6.28835354 0.23721549 -14.35504502 2.21862442 -22 6 C-29.39246245 10.7055599 -33.9826693 18.14064566 -36.4921875 26.43359375 C-37.70919772 32.58417615 -38.65507114 39.36643625 -35.22265625 44.828125 C-30.72189764 49.22605433 -24.45195592 48.25193057 -18.5 48.3125 C-17.54996094 48.34150391 -16.59992188 48.37050781 -15.62109375 48.40039062 C-10.31839663 48.50138682 -10.31839663 48.50138682 -5.546875 46.49609375 C-3.42244078 43.06802943 -2.06631693 39.55120093 -0.75 35.75 C-0.481875 35.00492188 -0.21375 34.25984375 0.0625 33.4921875 C0.71839896 31.6650404 1.36058777 29.83298172 2 28 C2.33 28 2.66 28 3 28 C2.44514267 35.49057392 0.69433078 42.54788868 -4 48.5625 C-10.48272273 53.22195696 -22.36045747 51.6636616 -29.9765625 50.57421875 C-34.1330647 49.44125912 -35.74279263 48.30739417 -38.5625 44.9375 C-41.71555851 38.05284013 -40.37634389 30.44816771 -38.03515625 23.51171875 C-33.97754649 13.66627317 -28.09018393 6.1106285 -18.3125 1.5625 C-12.31963097 -0.57118402 -6.27739392 -0.97951194 0 0 Z " fill="#D3EAF6" transform="translate(130,6)"/>
<path d="M0 0 C0.66 0.66 1.32 1.32 2 2 C1.81003567 4.416213 1.46238179 6.62718454 1 9 C0.8261377 9.94020996 0.65227539 10.88041992 0.47314453 11.84912109 C-0.14383367 15.13274296 -0.78808807 18.41014707 -1.4375 21.6875 C-1.65470703 22.81478516 -1.87191406 23.94207031 -2.09570312 25.10351562 C-2.31033203 26.18697266 -2.52496094 27.27042969 -2.74609375 28.38671875 C-2.93872803 29.36858154 -3.1313623 30.35044434 -3.32983398 31.36206055 C-3.95475357 33.82189884 -4.76646598 35.79270933 -6 38 C-5.66639854 29.64328332 -4.22984889 21.71680538 -2.37207031 13.58862305 C-1.48673032 9.65292128 -0.74537445 6.06579514 -1 2 C-2.52157311 2.28778244 -4.04222053 2.58046001 -5.5625 2.875 C-6.40941406 3.03742187 -7.25632813 3.19984375 -8.12890625 3.3671875 C-11.45447748 4.10017055 -14.72563496 5.06446713 -18 6 C-18.33 12.93 -18.66 19.86 -19 27 C-23.75577508 25.41474164 -25.79731571 21.28782939 -28.74609375 17.37109375 C-29.48988281 16.58863281 -30.23367187 15.80617188 -31 15 C-32.32 15 -33.64 15 -35 15 C-35.17015625 15.680625 -35.3403125 16.36125 -35.515625 17.0625 C-35.75796875 18.031875 -36.0003125 19.00125 -36.25 20 C-36.52070312 21.08410156 -36.79140625 22.16820313 -37.0703125 23.28515625 C-37.72936586 25.91860055 -38.39073976 28.55138563 -39.0546875 31.18359375 C-39.23225586 31.88935547 -39.40982422 32.59511719 -39.59277344 33.32226562 C-39.94142688 34.70792317 -40.29100202 36.0933492 -40.64160156 37.47851562 C-41.51916398 40.97131874 -42.33173918 44.46094525 -43 48 C-41.68 48.33 -40.36 48.66 -39 49 C-38.71125 47.9275 -38.4225 46.855 -38.125 45.75 C-37.27179891 42.90599636 -36.4363497 40.56491017 -35 38 C-34.82208796 42.53675697 -34.9538875 45.907775 -37 50 C-38 51 -38 51 -40.4375 51.1875 C-43 51 -43 51 -45 49 C-44.61662278 43.52065476 -43.46307141 38.35972347 -42.0625 33.0625 C-40.91538213 28.64207436 -39.81482618 24.23328546 -38.9375 19.75 C-38.08499347 16.3399739 -37.39878933 14.50782521 -35 12 C-30.1009995 12.40897518 -28.3004017 14.39206367 -25.1875 18.0625 C-24.00220703 19.44115234 -24.00220703 19.44115234 -22.79296875 20.84765625 C-22.20128906 21.55792969 -21.60960938 22.26820312 -21 23 C-20.96261719 21.87980469 -20.92523438 20.75960938 -20.88671875 19.60546875 C-20.82105743 18.1327791 -20.75461014 16.66012434 -20.6875 15.1875 C-20.66494141 14.44951172 -20.64238281 13.71152344 -20.61914062 12.95117188 C-20.34829838 7.50970495 -20.34829838 7.50970495 -18.71875 5.125 C-12.6763739 1.16999019 -7.2296965 -0.76102068 0 0 Z " fill="#D4EBF7" transform="translate(53,7)"/>
<path d="M0 0 C1.73974177 2.47394472 1.61033945 4.12861171 1.52734375 7.12890625 C1.5015625 8.10085937 1.47578125 9.0728125 1.44921875 10.07421875 C1.26322253 13.04170395 0.90595047 15.90910019 0.27734375 18.81640625 C-0.05265625 18.81640625 -0.38265625 18.81640625 -0.72265625 18.81640625 C-1.05265625 13.20640625 -1.38265625 7.59640625 -1.72265625 1.81640625 C-10.77951051 1.6170069 -10.77951051 1.6170069 -19.72265625 2.81640625 C-19.53832031 3.38875 -19.35398438 3.96109375 -19.1640625 4.55078125 C-18.6619697 7.12789475 -18.98577388 8.54518588 -19.66015625 11.06640625 C-20.69574437 15.79347855 -20.95121586 20.31086679 -20.97265625 25.12890625 C-20.98159912 25.81049805 -20.99054199 26.49208984 -20.99975586 27.19433594 C-20.97196513 32.00272313 -20.35158217 35.74322781 -17.34765625 39.56640625 C-12.21046613 43.51809096 -3.78244503 42.30964487 2.27734375 41.81640625 C6.88181055 39.83172228 8.95682768 37.34925052 11.41796875 32.98828125 C13.96677201 26.54676028 14.87698103 19.62774429 15.90234375 12.81640625 C16.03640625 11.94628906 16.17046875 11.07617188 16.30859375 10.1796875 C16.63483753 8.05910294 16.9565648 5.93782435 17.27734375 3.81640625 C17.60734375 3.81640625 17.93734375 3.81640625 18.27734375 3.81640625 C17.09111575 30.725052 17.09111575 30.725052 8.27734375 41.19140625 C2.66490937 45.75150918 -3.83754818 45.40995005 -10.72265625 44.81640625 C-15.33220127 43.69272713 -18.66851418 41.45788333 -21.72265625 37.81640625 C-25.98319256 29.29533363 -22.979108 13.16453366 -21.6484375 3.86328125 C-20.72265625 1.81640625 -20.72265625 1.81640625 -18.31640625 0.55859375 C-13.18422667 -0.90995161 -4.73308156 -3.25198121 0 0 Z " fill="#D5EBF7" transform="translate(159.72265625,11.18359375)"/>
<path d="M0 0 C1.24845703 0.00322266 2.49691406 0.00644531 3.78320312 0.00976562 C5.02005859 -0.00634766 6.25691406 -0.02246094 7.53125 -0.0390625 C8.72427734 -0.03970703 9.91730469 -0.04035156 11.14648438 -0.04101562 C12.23872314 -0.04399658 13.33096191 -0.04697754 14.45629883 -0.05004883 C17.81682971 0.36501634 19.72256492 1.39337289 22.47070312 3.32226562 C22.09570312 5.75976562 22.09570312 5.75976562 21.47070312 8.32226562 C18.25619043 9.92952197 15.03457777 9.37974747 11.47070312 9.32226562 C11.47070312 8.99226563 11.47070312 8.66226562 11.47070312 8.32226562 C12.58445313 8.23976563 13.69820312 8.15726563 14.84570312 8.07226562 C18.52824256 7.74352776 18.52824256 7.74352776 19.90820312 5.25976562 C20.18664062 4.30070313 20.18664062 4.30070313 20.47070312 3.32226562 C14.09612965 2.36758304 7.9100866 2.20203322 1.47070312 2.25976562 C0.50519531 2.26427734 -0.4603125 2.26878906 -1.45507812 2.2734375 C-3.81321776 2.28511146 -6.17122289 2.30148542 -8.52929688 2.32226562 C-8.85929687 3.64226563 -9.18929687 4.96226563 -9.52929688 6.32226562 C-8.53929687 6.32226562 -7.54929687 6.32226562 -6.52929688 6.32226562 C-7.51929687 9.29226562 -8.50929688 12.26226563 -9.52929688 15.32226562 C-11.83929688 15.65226562 -14.14929687 15.98226563 -16.52929688 16.32226562 C-16.85929687 17.31226562 -17.18929687 18.30226563 -17.52929688 19.32226562 C-15.54929688 19.32226562 -13.56929687 19.32226562 -11.52929688 19.32226562 C-11.71105469 20.03769531 -11.8928125 20.753125 -12.08007812 21.49023438 C-13.99455439 29.07941466 -15.79364072 36.6903024 -17.52929688 44.32226562 C-15.21929687 44.65226562 -12.90929688 44.98226562 -10.52929688 45.32226562 C-10.52929688 45.65226562 -10.52929688 45.98226562 -10.52929688 46.32226562 C-16.15429687 46.57226563 -16.15429687 46.57226563 -19.52929688 44.32226562 C-19.0038824 36.57240212 -16.97338212 29.67725703 -14.52929688 22.32226562 C-16.17929687 21.33226563 -17.82929687 20.34226562 -19.52929688 19.32226562 C-19.21679688 17.44726562 -19.21679688 17.44726562 -18.52929688 15.32226562 C-15.30138133 13.17032193 -14.24528878 13.1214012 -10.52929688 13.32226562 C-10.45817943 10.26421561 -10.47427187 7.56437563 -11.15429688 4.57226562 C-11.27804688 3.82976563 -11.40179688 3.08726563 -11.52929688 2.32226562 C-8.28878562 -0.91824563 -4.41476204 0.02632107 0 0 Z " fill="#D4EBF7" transform="translate(72.529296875,9.677734375)"/>
<path d="M0 0 C4.16138263 -0.08159574 7.9472484 0.01751476 12 1 C12 1.33 12 1.66 12 2 C6.555 2.495 6.555 2.495 1 3 C0.34 4.65 -0.32 6.3 -1 8 C5.93 8.495 5.93 8.495 13 9 C13.33 10.98 13.66 12.96 14 15 C12 17 12 17 9.828125 17.23046875 C5.12000279 17.15200005 0.62894997 16.97451578 -4 16 C-4.33 18.31 -4.66 20.62 -5 23 C1.93 23.495 1.93 23.495 9 24 C9 24.33 9 24.66 9 25 C6.70839681 25.02692484 4.41670454 25.04636124 2.125 25.0625 C0.84882812 25.07410156 -0.42734375 25.08570312 -1.7421875 25.09765625 C-5 25 -5 25 -7 24 C-6.51421457 20.87709365 -6.0013988 18.00419641 -5 15 C0.61 15 6.22 15 12 15 C12 13.68 12 12.36 12 11 C7.05 10.67 2.1 10.34 -3 10 C-1.875 3.25 -1.875 3.25 0 0 Z " fill="#CFE8F5" transform="translate(71,16)"/>
<path d="M0 0 C0.33 0 0.66 0 1 0 C0.44514267 7.49057392 -1.30566922 14.54788868 -6 20.5625 C-12.01144106 24.88322326 -21.88843762 23.4957952 -29 23 C-33.30445002 22.24071958 -36.61633063 21.41203617 -39.71484375 18.25 C-41.34213609 15.40100186 -41.30384289 13.50760086 -41.1875 10.25 C-41.16042969 9.26515625 -41.13335937 8.2803125 -41.10546875 7.265625 C-41.07066406 6.51796875 -41.03585938 5.7703125 -41 5 C-40.67 5 -40.34 5 -40 5 C-39.97421875 5.59167969 -39.9484375 6.18335938 -39.921875 6.79296875 C-39.54812003 12.000055 -39.03331243 15.31240007 -35 19 C-30.31884155 20.55727036 -25.3793641 20.26284568 -20.5 20.3125 C-19.07494141 20.35600586 -19.07494141 20.35600586 -17.62109375 20.40039062 C-12.31839663 20.50138682 -12.31839663 20.50138682 -7.546875 18.49609375 C-5.42244078 15.06802943 -4.06631693 11.55120093 -2.75 7.75 C-2.481875 7.00492188 -2.21375 6.25984375 -1.9375 5.4921875 C-1.28160104 3.6650404 -0.63941223 1.83298172 0 0 Z " fill="#CDE8F5" transform="translate(132,34)"/>
<path d="M0 0 C0.350625 0.639375 0.70125 1.27875 1.0625 1.9375 C3.77184206 4.82163832 6.15858911 4.7100822 10 5 C9.69106068 6.6256807 9.3777305 8.25052748 9.0625 9.875 C8.88847656 10.77992187 8.71445313 11.68484375 8.53515625 12.6171875 C8 15 8 15 7 17 C4.125 16.75 4.125 16.75 1 16 C-0.91885896 13.1438766 -1.25068905 10.83247533 -1.1875 7.4375 C-1.18105469 6.67308594 -1.17460938 5.90867187 -1.16796875 5.12109375 C-1 3 -1 3 0 0 Z M2 8 C2.33 9.65 2.66 11.3 3 13 C3.66 13 4.32 13 5 13 C5.33 11.35 5.66 9.7 6 8 C4.68 8 3.36 8 2 8 Z " fill="#57C2EB" transform="translate(102,30)"/>
<path d="M0 0 C-0.51482919 5.852795 -1.45357192 11.3297637 -3 17 C-4.32 17 -5.64 17 -7 17 C-7.33 17.66 -7.66 18.32 -8 19 C-8.66 18.67 -9.32 18.34 -10 18 C-10.99 17.67 -11.98 17.34 -13 17 C-11.02579865 14.47740939 -10.03254358 14.0070192 -6.8125 13.3125 C-5.884375 13.209375 -4.95625 13.10625 -4 13 C-4 12.34 -4 11.68 -4 11 C-4.66 11 -5.32 11 -6 11 C-6 10.01 -6 9.02 -6 8 C-5.01 8 -4.02 8 -3 8 C-2.67 6.35 -2.34 4.7 -2 3 C-5.11785113 3.64644661 -5.11785113 3.64644661 -6 6 C-6.66 5.67 -7.32 5.34 -8 5 C-8.99 5 -9.98 5 -11 5 C-10.625 3.0625 -10.625 3.0625 -10 1 C-6.78548731 -0.60725635 -3.56387464 -0.05748185 0 0 Z " fill="#067BC1" transform="translate(51,18)"/>
<path d="M0 0 C0.33 0 0.66 0 1 0 C0.62054529 6.83018485 -1.36069057 12.18390736 -5 18 C-5.66 18.33 -6.32 18.66 -7 19 C-6.814375 18.21625 -6.62875 17.4325 -6.4375 16.625 C-5.74037734 14.02910225 -5.74037734 14.02910225 -7 12 C-6.34 12 -5.68 12 -5 12 C-5 10.68 -5 9.36 -5 8 C-5.8971875 8.3403125 -5.8971875 8.3403125 -6.8125 8.6875 C-7.534375 8.790625 -8.25625 8.89375 -9 9 C-10.75 7.5625 -10.75 7.5625 -12 6 C-8.93109813 4.46554906 -6.29905734 5.45015711 -3 6 C-3 5.34 -3 4.68 -3 4 C-3.99 3.67 -4.98 3.34 -6 3 C-6 2.34 -6 1.68 -6 1 C-4.7934375 1.0309375 -4.7934375 1.0309375 -3.5625 1.0625 C-1.06645115 1.29633621 -1.06645115 1.29633621 0 0 Z " fill="#077BC0" transform="translate(130,35)"/>
<path d="M0 0 C0.66 0 1.32 0 2 0 C2.33 0.66 2.66 1.32 3 2 C3.66 1.67 4.32 1.34 5 1 C5.33 1.33 5.66 1.66 6 2 C6.99 1.67 7.98 1.34 9 1 C9.66 1.33 10.32 1.66 11 2 C10.67 3.32 10.34 4.64 10 6 C8.35 6.33 6.7 6.66 5 7 C5.99 7.66 6.98 8.32 8 9 C7.01 9.99 6.02 10.98 5 12 C5.66 12.66 6.32 13.32 7 14 C4.03 13.505 4.03 13.505 1 13 C0.855625 11.906875 0.71125 10.81375 0.5625 9.6875 C0.11711896 6.06877013 0.11711896 6.06877013 -1 3 C-0.67 2.01 -0.34 1.02 0 0 Z " fill="#31A3D9" transform="translate(37,33)"/>
<path d="M0 0 C5.06623768 4.23816537 9.80038069 8.67408963 14.4375 13.375 C15.07365234 14.01566406 15.70980469 14.65632813 16.36523438 15.31640625 C17.91250332 16.87530879 19.45736492 18.43651416 21 20 C24.39914975 18.86695008 25.05254451 17.87481525 27 15 C26.125 20.875 26.125 20.875 25 22 C20.53074508 21.891259 18.49224548 21.43021991 15.0859375 18.453125 C14.16483645 17.40043809 13.26131951 16.33213428 12.375 15.25 C11.46721903 14.19178675 10.55837264 13.13448649 9.6484375 12.078125 C8.99633301 11.30758789 8.99633301 11.30758789 8.33105469 10.52148438 C6.32834444 8.23225286 4.17757351 6.12254458 2 4 C1.71125 4.9075 1.4225 5.815 1.125 6.75 C0.23468224 9.32202908 -0.71494413 11.61346766 -2 14 C-2.1799928 8.78020872 -1.97094808 4.92737019 0 0 Z " fill="#D3EAF6" transform="translate(20,31)"/>
<path d="M0 0 C2.31 0.33 4.62 0.66 7 1 C6.814375 1.78375 6.62875 2.5675 6.4375 3.375 C5.74037734 5.97089775 5.74037734 5.97089775 7 8 C6.01 9.485 6.01 9.485 5 11 C1.31245243 10.50168276 -0.60490662 9.89932357 -3 7 C-1.125 2.25 -1.125 2.25 0 0 Z " fill="#2296D1" transform="translate(118,42)"/>
<path d="M0 0 C1.32 0 2.64 0 4 0 C4 0.66 4 1.32 4 2 C5.65 2 7.3 2 9 2 C9.12375 2.639375 9.2475 3.27875 9.375 3.9375 C9.58125 4.618125 9.7875 5.29875 10 6 C10.66 6.33 11.32 6.66 12 7 C11.67 7.66 11.34 8.32 11 9 C10.38125 8.79375 9.7625 8.5875 9.125 8.375 C8.42375 8.25125 7.7225 8.1275 7 8 C6.34 8.66 5.68 9.32 5 10 C5 7.69 5 5.38 5 3 C3.02 3.99 3.02 3.99 1 5 C1.66 5.33 2.32 5.66 3 6 C3 6.99 3 7.98 3 9 C1.68 9 0.36 9 -1 9 C-1.125 2.25 -1.125 2.25 0 0 Z " fill="#1C90CD" transform="translate(71,45)"/>
<path d="M0 0 C-0.33 2.97 -0.66 5.94 -1 9 C-3.31 9 -5.62 9 -8 9 C-8 7.68 -8 6.36 -8 5 C-8.66 4.34 -9.32 3.68 -10 3 C-8.68 3 -7.36 3 -6 3 C-6 2.34 -6 1.68 -6 1 C-6.99 0.67 -7.98 0.34 -9 0 C-5.32431536 -0.91892116 -3.83619425 -0.95904856 0 0 Z " fill="#1583C5" transform="translate(53,9)"/>
<path d="M0 0 C1.35390985 4.34419996 0.75090827 7.83815522 -1 12 C-3.125 13.5 -3.125 13.5 -5 14 C-6.37562854 12.71034824 -7.70766393 11.37310707 -9 10 C-9 9.34 -9 8.68 -9 8 C-7.35 8 -5.7 8 -4 8 C-4.66 7.34 -5.32 6.68 -6 6 C-4.68 5.34 -3.36 4.68 -2 4 C-3.32 3.01 -4.64 2.02 -6 1 C-4.02 0.67 -2.04 0.34 0 0 Z " fill="#077AC0" transform="translate(46,38)"/>
<path d="M0 0 C0.33 0.66 0.66 1.32 1 2 C0.67 2.66 0.34 3.32 0 4 C0.66 4 1.32 4 2 4 C2.33 3.34 2.66 2.68 3 2 C3 2.66 3 3.32 3 4 C4.32 3.67 5.64 3.34 7 3 C7.33 3.66 7.66 4.32 8 5 C7.01 6.485 7.01 6.485 6 8 C4.35 7.67 2.7 7.34 1 7 C1.495 7.45375 1.99 7.9075 2.5 8.375 C4 10 4 10 4 12 C1.69 12 -0.62 12 -3 12 C-3 9.3415435 -2.70602115 7.42090119 -2.0625 4.875 C-1.88847656 4.17117187 -1.71445313 3.46734375 -1.53515625 2.7421875 C-1 1 -1 1 0 0 Z " fill="#39AADD" transform="translate(123,29)"/>
<path d="M0 0 C0.99 0 1.98 0 3 0 C3.22162329 1.62324086 3.42689803 3.248721 3.625 4.875 C3.74101562 5.77992187 3.85703125 6.68484375 3.9765625 7.6171875 C3.98429688 8.40351563 3.99203125 9.18984375 4 10 C3.34 10.66 2.68 11.32 2 12 C0.68 12 -0.64 12 -2 12 C-3.4783226 9.04335481 -3.06032783 6.25770263 -3 3 C-1.68 3.33 -0.36 3.66 1 4 C1.33 3.01 1.66 2.02 2 1 C1.34 0.67 0.68 0.34 0 0 Z " fill="#4DB9E5" transform="translate(146,12)"/>
<path d="M0 0 C0.33 0 0.66 0 1 0 C1 6.6 1 13.2 1 20 C-2.88144435 18.70618522 -3.9405178 16.83360107 -6.4375 13.625 C-9.07302796 10.24474587 -11.42559243 7.39379459 -15 5 C-8.10653086 5.57547611 -5.22679724 11.01616445 -1 16 C-0.67 10.72 -0.34 5.44 0 0 Z " fill="#E4F2F9" transform="translate(33,14)"/>
<path d="M0 0 C0.2475 0.5775 0.495 1.155 0.75 1.75 C2.27204995 4.48968991 3.52525914 6.03768541 6 8 C8.81268522 8.55284796 11.35404045 8.91847228 14.1875 9.125 C16.81770769 9.34130754 19.38336958 9.62746279 22 10 C22.33 10.66 22.66 11.32 23 12 C14.60080795 12.37237797 8.30167642 12.62246435 1.625 7 C0 5 0 5 -1 2 C-0.67 1.34 -0.34 0.68 0 0 Z " fill="#C5E3F3" transform="translate(138,44)"/>
<path d="M0 0 C2.64 0.66 5.28 1.32 8 2 C7.01 3.32 6.02 4.64 5 6 C5.66 6.66 6.32 7.32 7 8 C4.03 7.505 4.03 7.505 1 7 C0.67 4.69 0.34 2.38 0 0 Z " fill="#43B3E2" transform="translate(37,39)"/>
<path d="M0 0 C0.33 0.66 0.66 1.32 1 2 C0.67 2.66 0.34 3.32 0 4 C1.32 3.34 2.64 2.68 4 2 C4.33 2.33 4.66 2.66 5 3 C7.05396726 2.59070014 7.05396726 2.59070014 9 2 C8.67 3.65 8.34 5.3 8 7 C4.7 6.34 1.4 5.68 -2 5 C-1.34 3.35 -0.68 1.7 0 0 Z " fill="#46B6E3" transform="translate(40,19)"/>
<path d="M0 0 C1.32 0.66 2.64 1.32 4 2 C3.01 2 2.02 2 1 2 C1 2.66 1 3.32 1 4 C1.66 4.33 2.32 4.66 3 5 C3 6.66666667 3 8.33333333 3 10 C1.68 9.67 0.36 9.34 -1 9 C-1 7.35 -1 5.7 -1 4 C-1.66 4 -2.32 4 -3 4 C-2.67 3.01 -2.34 2.02 -2 1 C-2 1.66 -2 2.32 -2 3 C-1.34 3 -0.68 3 0 3 C0 2.01 0 1.02 0 0 Z " fill="#43B1E0" transform="translate(59,43)"/>
<path d="M0 0 C-0.50603992 2.16874252 -0.99983813 3.99967627 -2 6 C-0.68 6.33 0.64 6.66 2 7 C-0.31 7 -2.62 7 -5 7 C-5 5.68 -5 4.36 -5 3 C-5.66 2.34 -6.32 1.68 -7 1 C-4.50935112 0.31292445 -2.62113708 0 0 0 Z " fill="#4BB8E5" transform="translate(50,11)"/>
<path d="M0 0 C2.92879371 0.62759865 5.36095629 1.58622659 8 3 C8 3.66 8 4.32 8 5 C5.69 5.33 3.38 5.66 1 6 C1.33 5.34 1.66 4.68 2 4 C1.34 3.67 0.68 3.34 0 3 C0 2.01 0 1.02 0 0 Z " fill="#4DBBE7" transform="translate(39,26)"/>
<path d="M0 0 C0.99 0.33 1.98 0.66 3 1 C2.34 1 1.68 1 1 1 C1 1.66 1 2.32 1 3 C1.66 3.33 2.32 3.66 3 4 C2.01 4.495 2.01 4.495 1 5 C1.66 5.33 2.32 5.66 3 6 C3 6.99 3 7.98 3 9 C1.68 9 0.36 9 -1 9 C-1.125 2.25 -1.125 2.25 0 0 Z " fill="#48B8E5" transform="translate(71,45)"/>
<path d="M0 0 C0.99 0.33 1.98 0.66 3 1 C2.6875 2.9375 2.6875 2.9375 2 5 C1.01 5.33 0.02 5.66 -1 6 C-1.66 6.99 -2.32 7.98 -3 9 C-3 6.36 -3 3.72 -3 1 C-2.67 1.66 -2.34 2.32 -2 3 C-1.34 2.34 -0.68 1.68 0 1 C0 0.67 0 0.34 0 0 Z " fill="#4FBDE8" transform="translate(155,14)"/>
<path d="M0 0 C1.9375 0.375 1.9375 0.375 4 1 C4.33 1.66 4.66 2.32 5 3 C4.01 4.485 4.01 4.485 3 6 C1.35 5.67 -0.3 5.34 -2 5 C-1.34 4.67 -0.68 4.34 0 4 C0.66 4.33 1.32 4.66 2 5 C2 4.34 2 3.68 2 3 C1.01 3 0.02 3 -1 3 C-0.67 2.01 -0.34 1.02 0 0 Z " fill="#45B5E3" transform="translate(120,47)"/>
<path d="M0 0 C0 2.64 0 5.28 0 8 C-0.33 8 -0.66 8 -1 8 C-1.33 6.35 -1.66 4.7 -2 3 C-2.99 2.67 -3.98 2.34 -5 2 C-5.33 2.66 -5.66 3.32 -6 4 C-6.66 3.67 -7.32 3.34 -8 3 C-8 2.34 -8 1.68 -8 1 C-5.29120665 -0.35439668 -2.99066732 -0.06501451 0 0 Z " fill="#1383C5" transform="translate(148,13)"/>
<path d="M0 0 C0.66 0 1.32 0 2 0 C2.66 2.64 3.32 5.28 4 8 C2.35 7.67 0.7 7.34 -1 7 C-0.67 4.69 -0.34 2.38 0 0 Z " fill="#1582C4" transform="translate(56,47)"/>
<path d="M0 0 C0.99 0 1.98 0 3 0 C2.6875 2.375 2.6875 2.375 2 5 C1.01 5.66 0.02 6.32 -1 7 C-1.33 5.35 -1.66 3.7 -2 2 C-1.34 2 -0.68 2 0 2 C0 1.34 0 0.68 0 0 Z " fill="#49B8E5" transform="translate(66,45)"/>
<path d="M0 0 C0.33 1.32 0.66 2.64 1 4 C-1.31 3.34 -3.62 2.68 -6 2 C-6 1.67 -6 1.34 -6 1 C-4.02 0.67 -2.04 0.34 0 0 Z M-4 5 C-3.34 5.33 -2.68 5.66 -2 6 C-2 6.66 -2 7.32 -2 8 C-3.32 7.34 -4.64 6.68 -6 6 C-5.34 5.67 -4.68 5.34 -4 5 Z " fill="#0D82C5" transform="translate(46,38)"/>
<path d="M0 0 C2.96175123 0.61277612 4.38058783 1.25372522 7 3 C7 3.66 7 4.32 7 5 C4.69 5 2.38 5 0 5 C0 3.33333333 0 1.66666667 0 0 Z " fill="#47B6E4" transform="translate(120,36)"/>
<path d="M0 0 C1.98 0.495 1.98 0.495 4 1 C3.67 2.32 3.34 3.64 3 5 C1.68 5.33 0.36 5.66 -1 6 C-0.67 4.02 -0.34 2.04 0 0 Z " fill="#2194D0" transform="translate(42,13)"/>
<path d="M0 0 C1.32 0.33 2.64 0.66 4 1 C3.67 2.32 3.34 3.64 3 5 C1.35 5 -0.3 5 -2 5 C-1.34 3.35 -0.68 1.7 0 0 Z " fill="#48B3E1" transform="translate(44,34)"/>
<path d="M0 0 C0.33 0.99 0.66 1.98 1 3 C1.66 3.33 2.32 3.66 3 4 C2.67 4.66 2.34 5.32 2 6 C1.38125 5.79375 0.7625 5.5875 0.125 5.375 C-0.57625 5.25125 -1.2775 5.1275 -2 5 C-2.66 5.66 -3.32 6.32 -4 7 C-4 5.35 -4 3.7 -4 2 C-3.01 2 -2.02 2 -1 2 C-0.67 1.34 -0.34 0.68 0 0 Z " fill="#4CBBE7" transform="translate(80,48)"/>
<path d="M0 0 C0.33 0 0.66 0 1 0 C1.03738281 0.59167969 1.07476562 1.18335938 1.11328125 1.79296875 C1.51376901 6.60667451 2.0385035 10.00841777 5 14 C4.01 14 3.02 14 2 14 C-0.28062828 10.57905758 -0.21925007 9.31812778 -0.125 5.3125 C-0.10695313 4.31863281 -0.08890625 3.32476562 -0.0703125 2.30078125 C-0.04710938 1.54152344 -0.02390625 0.78226563 0 0 Z " fill="#A0CDE8" transform="translate(91,39)"/>
<path d="M0 0 C-1.95216435 1.95216435 -3.53199953 2.84826645 -6 4 C-6 3.34 -6 2.68 -6 2 C-6.99 1.67 -7.98 1.34 -9 1 C-3.375 -1.125 -3.375 -1.125 0 0 Z " fill="#2494CF" transform="translate(159,13)"/>
<path d="M0 0 C1.32 0 2.64 0 4 0 C4 1.32 4 2.64 4 4 C2.68 4 1.36 4 0 4 C0 2.68 0 1.36 0 0 Z " fill="#077CC2" transform="translate(174,52)"/>
</svg>
