<?xml version="1.0" encoding="UTF-8"?>
<svg version="1.1" xmlns="http://www.w3.org/2000/svg" width="31" height="31">
<path d="M0 0 C1.15822266 -0.01740234 1.15822266 -0.01740234 2.33984375 -0.03515625 C7.9888505 -0.00578533 7.9888505 -0.00578533 10.21923828 1.65576172 C12.45380389 4.65534445 11.92896364 8.28341986 11.875 11.875 C11.88660156 12.64714844 11.89820312 13.41929688 11.91015625 14.21484375 C11.88078533 19.8638505 11.88078533 19.8638505 10.21923828 22.09423828 C7.21965555 24.32880389 3.59158014 23.80396364 0 23.75 C-1.15822266 23.76740234 -1.15822266 23.76740234 -2.33984375 23.78515625 C-7.9888505 23.75578533 -7.9888505 23.75578533 -10.21923828 22.09423828 C-12.45380389 19.09465555 -11.92896364 15.46658014 -11.875 11.875 C-11.88660156 11.10285156 -11.89820313 10.33070312 -11.91015625 9.53515625 C-11.88078533 3.8861495 -11.88078533 3.8861495 -10.21923828 1.65576172 C-7.21965555 -0.57880389 -3.59158014 -0.05396364 0 0 Z M-7.33203125 4.54296875 C-8.93823144 7.06239313 -8.89895258 8.90488015 -8.875 11.875 C-8.88273438 12.8340625 -8.89046875 13.793125 -8.8984375 14.78125 C-8.68296736 17.36530579 -8.68296736 17.36530579 -7.3203125 19.1953125 C-4.80952402 20.82247585 -2.97294063 20.77397533 0 20.75 C0.9590625 20.75773437 1.918125 20.76546875 2.90625 20.7734375 C5.4947714 20.5591257 5.4947714 20.5591257 7.33203125 19.17578125 C8.9119133 16.73990959 8.79961918 15.06522556 8.6875 12.1875 C8.66042969 11.28644531 8.63335938 10.38539062 8.60546875 9.45703125 C8.57066406 8.76996094 8.53585938 8.08289063 8.5 7.375 C7.51 7.705 6.52 8.035 5.5 8.375 C5.17 11.015 4.84 13.655 4.5 16.375 C-1.125 17.5 -1.125 17.5 -4.5 16.375 C-5.625 10.75 -5.625 10.75 -4.5 7.375 C-1.86 7.045 0.78 6.715 3.5 6.375 C3.5 5.715 3.5 5.055 3.5 4.375 C4.16 4.045 4.82 3.715 5.5 3.375 C3.72992286 3.29385894 1.95877902 3.23574495 0.1875 3.1875 C-0.79863281 3.15269531 -1.78476563 3.11789063 -2.80078125 3.08203125 C-5.47843145 3.17081518 -5.47843145 3.17081518 -7.33203125 4.54296875 Z M-1.5 9.375 C-1.83 10.695 -2.16 12.015 -2.5 13.375 C-1.18 13.705 0.14 14.035 1.5 14.375 C1.83 13.055 2.16 11.735 2.5 10.375 C1.18 10.045 -0.14 9.715 -1.5 9.375 Z " fill="#000000" transform="translate(15.5,3.625)"/>
</svg>
