<?xml version="1.0" encoding="UTF-8"?>
<svg version="1.1" xmlns="http://www.w3.org/2000/svg" width="31" height="31">
<path d="M0 0 C7.59 0 15.18 0 23 0 C23 7.59 23 15.18 23 23 C15.41 23 7.82 23 0 23 C0 15.41 0 7.82 0 0 Z M5 10 C5 12.97 5 15.94 5 19 C5.33 19 5.66 19 6 19 C6 16.03 6 13.06 6 10 C5.67 10 5.34 10 5 10 Z M10 10 C10 12.97 10 15.94 10 19 C10.66 19 11.32 19 12 19 C12 16.03 12 13.06 12 10 C11.34 10 10.68 10 10 10 Z M15 10 C15.99 10.495 15.99 10.495 17 11 C17 13.64 17 16.28 17 19 C17.66 19 18.32 19 19 19 C18.67 16.03 18.34 13.06 18 10 C17.01 10 16.02 10 15 10 Z " fill="#000000" transform="translate(4,4)"/>
</svg>
