<?xml version="1.0" encoding="UTF-8"?>
<svg version="1.1" xmlns="http://www.w3.org/2000/svg" width="31" height="31">
<path d="M0 0 C1.61358398 -0.01836914 1.61358398 -0.01836914 3.25976562 -0.03710938 C4.28650391 -0.03904297 5.31324219 -0.04097656 6.37109375 -0.04296875 C7.79119751 -0.04913208 7.79119751 -0.04913208 9.23999023 -0.05541992 C11.5625 0.1875 11.5625 0.1875 13.5625 2.1875 C14.81839467 7.81876965 15.01984921 12.86324337 12.5625 18.1875 C10.08651267 20.66348733 3.45389842 19.3730126 0.125 19.375 C-1.48858398 19.39336914 -1.48858398 19.39336914 -3.13476562 19.41210938 C-4.16150391 19.41404297 -5.18824219 19.41597656 -6.24609375 19.41796875 C-7.66619751 19.42413208 -7.66619751 19.42413208 -9.11499023 19.43041992 C-11.4375 19.1875 -11.4375 19.1875 -13.4375 17.1875 C-14.88605886 11.4516742 -14.49421503 6.67207342 -12.4375 1.1875 C-9.96151267 -1.28848733 -3.32889842 0.0019874 0 0 Z M-1.4375 8.1875 C-1.4375 9.1775 -1.4375 10.1675 -1.4375 11.1875 C-0.4475 11.1875 0.5425 11.1875 1.5625 11.1875 C1.2325 10.1975 0.9025 9.2075 0.5625 8.1875 C-0.0975 8.1875 -0.7575 8.1875 -1.4375 8.1875 Z " fill="#000000" transform="translate(15.4375,5.8125)"/>
</svg>
